<svg width="179" height="302" viewBox="0 0 179 302" fill="none" xmlns="http:
<path d="M133.636 207.424L133.636 298" stroke="#0099FF" stroke-width="8" stroke-linecap="round"/>
<path d="M89.0908 4L89.0908 94.5758" stroke="#0099FF" stroke-width="8" stroke-linecap="round"/>
<path d="M44.5454 207.424L44.5454 298" stroke="#0099FF" stroke-width="8" stroke-linecap="round"/>
<path d="M50 55.5152H128.182C153.587 55.5152 174.182 76.1101 174.182 101.515V236.031C174.181 239.344 171.495 242.031 168.182 242.031H10C6.68645 242.031 4.00026 239.344 4 236.031V101.515C4 76.1101 24.5949 55.5152 50 55.5152Z" fill="#C8E9FF" stroke="#0099FF" stroke-width="8"/>
<path d="M69.0936 157.697H65.6333L70.9057 142.424H75.0669L80.3318 157.697H76.8716L73.046 145.914H72.9267L69.0936 157.697ZM68.8773 151.694H77.0506V154.214H68.8773V151.694ZM94.9446 142.424V157.697H92.1555L85.511 148.084H85.3991V157.697H82.1701V142.424H85.0039L91.5962 152.029H91.7305V142.424H94.9446ZM103.027 157.697H97.6125V142.424H103.071C104.607 142.424 105.93 142.73 107.039 143.341C108.147 143.948 109 144.821 109.596 145.959C110.198 147.098 110.499 148.46 110.499 150.046C110.499 151.637 110.198 153.004 109.596 154.147C109 155.291 108.142 156.168 107.024 156.78C105.91 157.391 104.578 157.697 103.027 157.697ZM100.842 154.93H102.892C103.847 154.93 104.65 154.761 105.301 154.423C105.957 154.08 106.449 153.551 106.778 152.835C107.111 152.114 107.277 151.184 107.277 150.046C107.277 148.917 107.111 147.995 106.778 147.279C106.449 146.563 105.96 146.036 105.308 145.698C104.657 145.36 103.854 145.191 102.9 145.191H100.842V154.93Z" fill="#0099FF"/>
</svg>
