<svg width="179" height="302" viewBox="0 0 179 302" fill="none" xmlns="http:
<path d="M133.818 207.424L133.818 298" stroke="#0099FF" stroke-width="8" stroke-linecap="round"/>
<path d="M89.2725 4L89.2725 94.5758" stroke="#0099FF" stroke-width="8" stroke-linecap="round"/>
<path d="M44.7268 207.424L44.7268 298" stroke="#0099FF" stroke-width="8" stroke-linecap="round"/>
<path d="M50.1814 55.5152H128.363C153.768 55.5152 174.363 76.1101 174.363 101.515V236.031C174.363 239.344 171.677 242.031 168.363 242.031H10.1814C6.86785 242.031 4.18165 239.344 4.1814 236.031V101.515C4.1814 76.1101 24.7763 55.5152 50.1814 55.5152Z" fill="#C8E9FF" stroke="#0099FF" stroke-width="8"/>
<path d="M72.4381 142.424V157.697H69.6491L63.0045 148.084H62.8927V157.697H59.6636V142.424H62.4974L69.0898 152.029H69.224V142.424H72.4381ZM77.7385 157.697H74.2782L79.5506 142.424H83.7118L88.9767 157.697H85.5165L81.6909 145.914H81.5716L77.7385 157.697ZM77.5222 151.694H85.6955V154.214H77.5222V151.694ZM103.589 142.424V157.697H100.8L94.1559 148.084H94.044V157.697H90.815V142.424H93.6488L100.241 152.029H100.375V142.424H103.589ZM111.671 157.697H106.257V142.424H111.716C113.252 142.424 114.575 142.73 115.684 143.341C116.792 143.948 117.645 144.821 118.241 145.959C118.843 147.098 119.144 148.46 119.144 150.046C119.144 151.637 118.843 153.004 118.241 154.147C117.645 155.291 116.787 156.168 115.669 156.78C114.555 157.391 113.223 157.697 111.671 157.697ZM109.486 154.93H111.537C112.492 154.93 113.295 154.761 113.946 154.423C114.602 154.08 115.094 153.551 115.423 152.835C115.756 152.114 115.922 151.184 115.922 150.046C115.922 148.917 115.756 147.995 115.423 147.279C115.094 146.563 114.605 146.036 113.953 145.698C113.302 145.36 112.499 145.191 111.545 145.191H109.486V154.93Z" fill="#0099FF"/>
<circle cx="89.2724" cy="38.1515" r="14.3939" fill="#C8E9FF" stroke="#0099FF" stroke-width="8"/>
</svg>
