<svg width="179" height="288" viewBox="0 0 179 288" fill="none" xmlns="http://www.w3.org/2000/svg">
<path d="M89.4541 4.84852L89.4541 80.5758" stroke="#0099FF" stroke-width="8" stroke-linecap="round"/>
<path d="M89.4541 193.424L89.4541 284" stroke="#0099FF" stroke-width="8" stroke-linecap="round"/>
<path d="M168.421 219.532C170.241 223.506 167.337 228.031 162.966 228.031H15.9424C11.5712 228.031 8.66709 223.506 10.4873 219.532L89.4541 47.1207L168.421 219.532Z" fill="#C8E9FF" stroke="#0099FF" stroke-width="8"/>
<path d="M79.4717 167.03V182.303H76.6826L70.0381 172.69H69.9262V182.303H66.6972V167.03H69.531L76.1233 176.635H76.2576V167.03H79.4717ZM96.1744 174.667C96.1744 176.332 95.8587 177.749 95.2273 178.917C94.6009 180.086 93.7458 180.978 92.6619 181.595C91.5831 182.206 90.37 182.512 89.0227 182.512C87.6655 182.512 86.4475 182.204 85.3686 181.587C84.2898 180.971 83.4372 180.078 82.8107 178.91C82.1843 177.742 81.8711 176.327 81.8711 174.667C81.8711 173.001 82.1843 171.584 82.8107 170.416C83.4372 169.248 84.2898 168.358 85.3686 167.746C86.4475 167.13 87.6655 166.822 89.0227 166.822C90.37 166.822 91.5831 167.13 92.6619 167.746C93.7458 168.358 94.6009 169.248 95.2273 170.416C95.8587 171.584 96.1744 173.001 96.1744 174.667ZM92.9006 174.667C92.9006 173.588 92.739 172.678 92.4159 171.937C92.0977 171.197 91.6477 170.635 91.0661 170.252C90.4844 169.869 89.8033 169.678 89.0227 169.678C88.2422 169.678 87.5611 169.869 86.9794 170.252C86.3977 170.635 85.9453 171.197 85.6222 171.937C85.304 172.678 85.1449 173.588 85.1449 174.667C85.1449 175.746 85.304 176.655 85.6222 177.396C85.9453 178.137 86.3977 178.699 86.9794 179.081C87.5611 179.464 88.2422 179.656 89.0227 179.656C89.8033 179.656 90.4844 179.464 91.0661 179.081C91.6477 178.699 92.0977 178.137 92.4159 177.396C92.739 176.655 92.9006 175.746 92.9006 174.667ZM97.2874 169.693V167.03H109.831V169.693H105.155V182.303H101.963V169.693H97.2874Z" fill="#0099FF"/>
<circle cx="89.4545" cy="37.5152" r="14.3939" fill="#C8E9FF" stroke="#0099FF" stroke-width="8"/>
</svg>
