<svg width="169" height="288" viewBox="0 0 169 288" fill="none" xmlns="http:
<path d="M129 229L129 284" stroke="#0099FF" stroke-width="8" stroke-linecap="round"/>
<path d="M86.1211 4.84852L86.1211 80.5758" stroke="#0099FF" stroke-width="8" stroke-linecap="round"/>
<path d="M39 229L39 284" stroke="#0099FF" stroke-width="8" stroke-linecap="round"/>
<path d="M86.3262 59.7504C163.415 103.415 169.402 184.358 161.945 225.127C126.88 200.188 93.8413 194.328 66.2051 197.782C39.9318 201.065 18.7679 212.732 5.53516 223.978C2.5858 201.343 3.17183 168.92 13.7061 138.099C24.7011 105.93 46.4571 75.6603 86.3262 59.7504Z" fill="#C8E9FF" stroke="#0099FF" stroke-width="8"/>
<path d="M58.6604 135.849L61.7403 141.054H61.8597L64.9545 135.849H68.6011L63.9403 143.485L68.7055 151.121H64.9918L61.8597 145.909H61.7403L58.6082 151.121H54.9094L59.6896 143.485L54.9989 135.849H58.6604ZM83.419 135.849V151.121H80.6299L73.9854 141.509H73.8735V151.121H70.6445V135.849H73.4783L80.0706 145.454H80.2048V135.849H83.419ZM100.122 143.485C100.122 145.15 99.8059 146.567 99.1746 147.736C98.5481 148.904 97.693 149.796 96.6092 150.413C95.5304 151.024 94.3173 151.33 92.97 151.33C91.6128 151.33 90.3947 151.022 89.3159 150.405C88.2371 149.789 87.3844 148.896 86.758 147.728C86.1316 146.56 85.8184 145.145 85.8184 143.485C85.8184 141.819 86.1316 140.402 86.758 139.234C87.3844 138.066 88.2371 137.176 89.3159 136.564C90.3947 135.948 91.6128 135.64 92.97 135.64C94.3173 135.64 95.5304 135.948 96.6092 136.564C97.693 137.176 98.5481 138.066 99.1746 139.234C99.8059 140.402 100.122 141.819 100.122 143.485ZM96.8479 143.485C96.8479 142.406 96.6863 141.496 96.3631 140.755C96.0449 140.015 95.595 139.453 95.0133 139.07C94.4317 138.687 93.7505 138.496 92.97 138.496C92.1895 138.496 91.5084 138.687 90.9267 139.07C90.345 139.453 89.8926 140.015 89.5694 140.755C89.2513 141.496 89.0922 142.406 89.0922 143.485C89.0922 144.564 89.2513 145.474 89.5694 146.214C89.8926 146.955 90.345 147.517 90.9267 147.9C91.5084 148.282 92.1895 148.474 92.97 148.474C93.7505 148.474 94.4317 148.282 95.0133 147.9C95.595 147.517 96.0449 146.955 96.3631 146.214C96.6863 145.474 96.8479 144.564 96.8479 143.485ZM102.514 151.121V135.849H108.539C109.693 135.849 110.677 136.055 111.492 136.467C112.313 136.875 112.937 137.454 113.364 138.205C113.797 138.951 114.013 139.828 114.013 140.838C114.013 141.852 113.794 142.724 113.357 143.455C112.919 144.181 112.285 144.738 111.455 145.126C110.63 145.513 109.63 145.707 108.457 145.707H104.423V143.112H107.935C108.552 143.112 109.064 143.027 109.471 142.858C109.879 142.689 110.182 142.436 110.381 142.098C110.585 141.76 110.687 141.34 110.687 140.838C110.687 140.33 110.585 139.903 110.381 139.555C110.182 139.207 109.877 138.943 109.464 138.764C109.056 138.58 108.542 138.488 107.92 138.488H105.743V151.121H102.514ZM110.761 144.171L114.557 151.121H110.993L107.279 144.171H110.761Z" fill="#0099FF"/>
<circle cx="86.1215" cy="44.9394" r="14.3939" fill="#C8E9FF" stroke="#0099FF" stroke-width="8"/>
<path d="M12.2686 241.382L32.4307 230.206C63.5282 212.969 101.236 212.64 132.63 229.332L157.288 242.443" stroke="#0099FF" stroke-width="10" stroke-linecap="round"/>
</svg>
