<svg width="169" height="302" viewBox="0 0 169 302" fill="none" xmlns="http:
<path d="M129 243L129 298" stroke="#0099FF" stroke-width="8" stroke-linecap="round"/>
<path d="M86.1211 4L86.1211 94.5758" stroke="#0099FF" stroke-width="8" stroke-linecap="round"/>
<path d="M39 242L39 298" stroke="#0099FF" stroke-width="8" stroke-linecap="round"/>
<path d="M86.3262 73.7503C163.415 117.415 169.402 198.358 161.945 239.127C126.88 214.188 93.8413 208.328 66.2051 211.782C39.9318 215.065 18.7679 226.732 5.53516 237.978C2.5858 215.343 3.17183 182.92 13.7061 152.099C24.7011 119.93 46.4571 89.6603 86.3262 73.7503Z" fill="#C8E9FF" stroke="#0099FF" stroke-width="8"/>
<path d="M66.1193 149.848L69.1992 155.054H69.3185L72.4133 149.848H76.06L71.3991 157.485L76.1644 165.121H72.4506L69.3185 159.909H69.1992L66.0671 165.121H62.3682L67.1484 157.485L62.4577 149.848H66.1193ZM91.4203 157.485C91.4203 159.15 91.1046 160.567 90.4732 161.736C89.8468 162.904 88.9917 163.796 87.9079 164.413C86.8291 165.024 85.616 165.33 84.2687 165.33C82.9115 165.33 81.6934 165.022 80.6146 164.405C79.5357 163.789 78.6831 162.896 78.0567 161.728C77.4303 160.56 77.1171 159.145 77.1171 157.485C77.1171 155.819 77.4303 154.402 78.0567 153.234C78.6831 152.066 79.5357 151.176 80.6146 150.564C81.6934 149.948 82.9115 149.64 84.2687 149.64C85.616 149.64 86.8291 149.948 87.9079 150.564C88.9917 151.176 89.8468 152.066 90.4732 153.234C91.1046 154.402 91.4203 155.819 91.4203 157.485ZM88.1465 157.485C88.1465 156.406 87.985 155.496 87.6618 154.755C87.3436 154.015 86.8937 153.453 86.312 153.07C85.7304 152.687 85.0492 152.496 84.2687 152.496C83.4882 152.496 82.8071 152.687 82.2254 153.07C81.6437 153.453 81.1913 154.015 80.8681 154.755C80.55 155.496 80.3909 156.406 80.3909 157.485C80.3909 158.564 80.55 159.473 80.8681 160.214C81.1913 160.955 81.6437 161.517 82.2254 161.9C82.8071 162.282 83.4882 162.474 84.2687 162.474C85.0492 162.474 85.7304 162.282 86.312 161.9C86.8937 161.517 87.3436 160.955 87.6618 160.214C87.985 159.473 88.1465 158.564 88.1465 157.485ZM93.8123 165.121V149.848H99.8379C100.991 149.848 101.976 150.055 102.791 150.467C103.611 150.875 104.235 151.454 104.663 152.205C105.095 152.951 105.312 153.828 105.312 154.837C105.312 155.852 105.093 156.724 104.655 157.455C104.218 158.181 103.584 158.738 102.754 159.125C101.928 159.513 100.929 159.707 99.7558 159.707H95.7214V157.112H99.2338C99.8503 157.112 100.362 157.027 100.77 156.858C101.178 156.689 101.481 156.436 101.68 156.098C101.884 155.76 101.986 155.34 101.986 154.837C101.986 154.33 101.884 153.903 101.68 153.555C101.481 153.207 101.175 152.943 100.763 152.764C100.355 152.58 99.8403 152.488 99.2189 152.488H97.0413V165.121H93.8123ZM102.06 158.171L105.856 165.121H102.291L98.5776 158.171H102.06Z" fill="#0099FF"/>
<path d="M11.2686 255.382L31.4307 244.206C62.5282 226.969 100.236 226.64 131.63 243.332L156.288 256.443" stroke="#0099FF" stroke-width="10" stroke-linecap="round"/>
</svg>
