<svg width="165" height="54" viewBox="0 0 165 54" fill="none" xmlns="http://www.w3.org/2000/svg">
<mask id="path-1-inside-1_175_164" fill="white">
<path d="M105.704 0C109.076 0 112.419 0.608839 115.574 1.79721L163.036 19.6748C163.751 19.9441 164.109 20.0791 164.369 20.2695C164.599 20.4379 164.773 20.6368 164.88 20.8535C165 21.0986 165 21.3739 165 21.9229V31.4424C165 31.9832 165 32.2539 164.883 32.4961C164.779 32.7103 164.609 32.9075 164.385 33.0752C164.131 33.2647 163.781 33.4011 163.082 33.6729L115.698 52.0968C112.463 53.3546 109.022 54 105.551 54H6.02148C2.69587 53.9999 0 52.1953 0 49.9697V4.03027C0 1.80474 2.69587 0.000148995 6.02148 0H105.704Z"/>
</mask>
<path d="M105.704 0C109.076 0 112.419 0.608839 115.574 1.79721L163.036 19.6748C163.751 19.9441 164.109 20.0791 164.369 20.2695C164.599 20.4379 164.773 20.6368 164.88 20.8535C165 21.0986 165 21.3739 165 21.9229V31.4424C165 31.9832 165 32.2539 164.883 32.4961C164.779 32.7103 164.609 32.9075 164.385 33.0752C164.131 33.2647 163.781 33.4011 163.082 33.6729L115.698 52.0968C112.463 53.3546 109.022 54 105.551 54H6.02148C2.69587 53.9999 0 52.1953 0 49.9697V4.03027C0 1.80474 2.69587 0.000148995 6.02148 0H105.704Z" fill="#FDFEFF"/>
<path d="M163.036 19.6748L164.094 16.8674L164.094 16.8674L163.036 19.6748ZM164.369 20.2695L166.141 17.8489L166.141 17.8486L164.369 20.2695ZM164.88 20.8535L167.573 19.5314L167.573 19.5308L164.88 20.8535ZM164.883 32.4961L167.583 33.8036L167.583 33.8034L164.883 32.4961ZM164.385 33.0752L166.179 35.4797L166.179 35.4793L164.385 33.0752ZM163.082 33.6729L164.169 36.4689L164.169 36.4689L163.082 33.6729ZM6.02148 54L6.02135 57H6.02148V54ZM6.02148 0L6.02148 -3L6.02135 -3L6.02148 0ZM115.698 52.0968L114.611 49.3007L115.698 52.0968ZM115.574 1.79721L114.517 4.60465L115.574 1.79721ZM115.574 1.79721L114.517 4.60465L161.979 22.4822L163.036 19.6748L164.094 16.8674L116.632 -1.01024L115.574 1.79721ZM163.036 19.6748L161.979 22.4822C162.161 22.5509 162.303 22.6046 162.426 22.6521C162.549 22.6996 162.629 22.7322 162.684 22.7562C162.801 22.8066 162.726 22.7844 162.597 22.6904L164.369 20.2695L166.141 17.8486C165.467 17.3551 164.62 17.0657 164.094 16.8674L163.036 19.6748ZM164.369 20.2695L162.597 22.6902C162.509 22.6259 162.331 22.4692 162.187 22.1762L164.88 20.8535L167.573 19.5308C167.216 18.8044 166.689 18.2499 166.141 17.8489L164.369 20.2695ZM164.88 20.8535L162.187 22.1756C162.115 22.0296 162.067 21.8877 162.036 21.762C162.007 21.6445 161.999 21.562 161.997 21.5407C161.995 21.523 161.997 21.5365 161.999 21.6108C162 21.6862 162 21.7778 162 21.9229H165H168C168 21.6567 168.071 20.546 167.573 19.5314L164.88 20.8535ZM165 21.9229H162V31.4424H165H168V21.9229H165ZM165 31.4424H162C162 31.5852 162 31.6752 161.999 31.7491C161.997 31.822 161.995 31.8349 161.997 31.817C161.999 31.7955 162.007 31.7137 162.035 31.5975C162.065 31.4732 162.113 31.3331 162.183 31.1888L164.883 32.4961L167.583 33.8034C168.069 32.7997 168 31.7062 168 31.4424H165ZM164.883 32.4961L162.183 31.1886C162.323 30.8986 162.498 30.7396 162.59 30.6711L164.385 33.0752L166.179 35.4793C166.72 35.0755 167.235 34.522 167.583 33.8036L164.883 32.4961ZM164.385 33.0752L162.591 30.6707C162.719 30.5753 162.795 30.5515 162.682 30.6015C162.629 30.6253 162.551 30.6579 162.432 30.7057C162.312 30.7534 162.173 30.8075 161.995 30.8768L163.082 33.6729L164.169 36.4689C164.683 36.2692 165.516 35.9744 166.179 35.4797L164.385 33.0752ZM163.082 33.6729L161.995 30.8768L114.611 49.3007L115.698 52.0968L116.785 54.8928L164.169 36.4689L163.082 33.6729ZM105.551 54V51H6.02148V54V57H105.551V54ZM6.02148 54L6.02162 51C4.87089 50.9999 3.96426 50.6823 3.43235 50.3263C2.88046 49.9569 3 49.7728 3 49.9697H0H-3C-3 52.3922 -1.53253 54.2231 0.0949276 55.3125C1.74236 56.4151 3.84646 56.9999 6.02135 57L6.02148 54ZM0 49.9697H3V4.03027H0H-3V49.9697H0ZM0 4.03027H3C3 4.22718 2.88046 4.04309 3.43235 3.67369C3.96426 3.31766 4.87089 3.00005 6.02162 3L6.02148 0L6.02135 -3C3.84646 -2.9999 1.74236 -2.41514 0.0949276 -1.31245C-1.53253 -0.223134 -3 1.60783 -3 4.03027H0ZM6.02148 0V3H105.704V0V-3H6.02148V0ZM115.698 52.0968L114.611 49.3007C111.722 50.4238 108.65 51 105.551 51V54V57C109.394 57 113.203 56.2855 116.785 54.8928L115.698 52.0968ZM115.574 1.79721L116.632 -1.01024C113.139 -2.32593 109.437 -3 105.704 -3V0V3C108.714 3 111.7 3.54361 114.517 4.60465L115.574 1.79721Z" fill="#0099FF" mask="url(#path-1-inside-1_175_164)"/>
<path d="M43.9207 18.7273V34H40.6917V18.7273H43.9207ZM59.3519 18.7273V34H56.5629L49.9183 24.3874H49.8065V34H46.5774V18.7273H49.4112L56.0036 28.3324H56.1378V18.7273H59.3519ZM62.0198 34V18.7273H68.0454C69.2037 18.7273 70.1906 18.9485 71.0059 19.391C71.8213 19.8285 72.4427 20.4375 72.8703 21.218C73.3028 21.9936 73.5191 22.8885 73.5191 23.9027C73.5191 24.9169 73.3003 25.8118 72.8628 26.5874C72.4253 27.3629 71.7915 27.967 70.9612 28.3995C70.1359 28.832 69.1366 29.0483 67.9633 29.0483H64.1228V26.4606H67.4413C68.0628 26.4606 68.5748 26.3537 68.9775 26.1399C69.3852 25.9212 69.6885 25.6204 69.8873 25.2376C70.0912 24.8498 70.1931 24.4048 70.1931 23.9027C70.1931 23.3956 70.0912 22.9531 69.8873 22.5753C69.6885 22.1925 69.3852 21.8967 68.9775 21.6879C68.5699 21.4741 68.0528 21.3672 67.4264 21.3672H65.2488V34H62.0198ZM85.0501 18.7273H88.2791V28.6456C88.2791 29.7592 88.0131 30.7337 87.4812 31.5689C86.9542 32.4041 86.2159 33.0554 85.2663 33.5227C84.3168 33.9851 83.2106 34.2163 81.9478 34.2163C80.68 34.2163 79.5714 33.9851 78.6218 33.5227C77.6722 33.0554 76.9339 32.4041 76.407 31.5689C75.88 30.7337 75.6165 29.7592 75.6165 28.6456V18.7273H78.8455V28.3697C78.8455 28.9513 78.9723 29.4684 79.2259 29.9208C79.4844 30.3732 79.8473 30.7287 80.3146 30.9872C80.782 31.2457 81.3263 31.375 81.9478 31.375C82.5742 31.375 83.1186 31.2457 83.581 30.9872C84.0483 30.7287 84.4087 30.3732 84.6623 29.9208C84.9208 29.4684 85.0501 28.9513 85.0501 28.3697V18.7273ZM90.3541 21.3896V18.7273H102.897V21.3896H98.2217V34H95.0299V21.3896H90.3541Z" fill="#0099FF"/>
<circle cx="22.5" cy="26.5" r="6.85" fill="#8BFFBB" stroke="#0099FF" stroke-width="1.3"/>
</svg>
