<svg width="329" height="455" viewBox="0 0 329 455" fill="none" xmlns="http://www.w3.org/2000/svg">
<path fill-rule="evenodd" clip-rule="evenodd" d="M163.188 13.7767C148.581 26.3209 146.977 31.6023 145.259 72.8115C144.215 97.704 140.536 123.777 137.081 130.752C129.013 147.017 104.261 155.506 64.884 155.506C47.7041 155.506 28.8978 158.046 23.0962 161.145C0.766346 173.079 -7.64197 235.989 8.07313 273.559C17.2023 295.381 23.4422 297.795 79.0189 301.014C107.064 302.638 118.177 306.094 129.48 316.697C142.427 328.838 143.979 334.851 143.979 372.777C143.979 417.126 153.246 444.927 170.19 451.423C175.322 453.387 206.21 455 238.829 455C290.092 455 300.195 453.382 313.327 443.061C327.479 431.945 328.523 427.965 328.523 385.091C328.523 359.767 325.98 334.31 322.877 328.516C314.013 311.974 285.328 305.253 223.592 305.253C170.691 305.253 165.489 304.222 152.37 291.114C139.584 278.351 138.212 272.292 138.212 228.537C138.212 188.255 140.224 177.542 150.167 164.923C161.689 150.288 164.227 149.747 221.389 149.747C285.207 149.747 313.938 143.158 322.877 126.484C325.98 120.69 328.523 95.2332 328.523 69.9087C328.523 27.0351 327.479 23.0552 313.327 11.9394C300.19 1.61265 290.092 0 238.679 0C184.29 0 177.86 1.17493 163.188 13.7767Z" fill="black"/>
</svg>
