<svg width="281" height="80" viewBox="0 0 281 80" fill="none" xmlns="http:
<path fill-rule="evenodd" clip-rule="evenodd" d="M27.3204 2.392C24.8748 4.57 24.6064 5.487 24.3187 12.642C24.1439 16.964 23.5279 21.491 22.9496 22.702C21.5989 25.526 17.455 27 10.8626 27C7.98643 27 4.83796 27.441 3.86668 27.979C0.128299 30.051 -1.27939 40.974 1.35157 47.497C2.87994 51.286 3.9246 51.705 13.229 52.264C17.9242 52.546 19.7847 53.146 21.6771 54.987C23.8446 57.095 24.1043 58.139 24.1043 64.724C24.1043 72.424 25.6559 77.251 28.4925 78.379C29.3518 78.72 34.5229 79 39.9837 79C48.566 79 50.2575 78.719 52.4559 76.927C54.8253 74.997 55 74.306 55 66.862C55 62.465 54.5742 58.045 54.0548 57.039C52.5708 54.167 47.7685 53 37.4329 53C28.5765 53 27.7056 52.821 25.5091 50.545C23.3686 48.329 23.1388 47.277 23.1388 39.68C23.1388 32.686 23.4758 30.826 25.1403 28.635C27.0693 26.094 27.4942 26 37.0641 26C47.7482 26 52.5583 24.856 54.0548 21.961C54.5742 20.955 55 16.535 55 12.138C55 4.694 54.8253 4.003 52.4559 2.073C50.2566 0.279998 48.566 0 39.9586 0C30.8531 0 29.7766 0.203998 27.3204 2.392Z" fill="#2388FF"/>
<path d="M100.92 79.1037C98.823 79.1037 97.0257 78.7303 95.5279 77.9834C94.1051 77.1618 93.0566 75.9668 92.3826 74.3983L65.1982 12.4437C64 9.68024 63.7004 7.5516 64.2996 6.05782C64.9735 4.48935 66.7334 3.03291 69.5792 1.6885C71.5263 0.56817 73.1738 0.00800223 74.5218 0.00800223C75.9447 -0.0666859 77.1429 0.381447 78.1164 1.3524C79.1649 2.24867 80.0635 3.63042 80.8124 5.49765L100.695 55.1285L120.69 5.83375C121.439 3.89183 122.3 2.4354 123.274 1.46444C124.322 0.493482 125.558 0.00800223 126.981 0.00800223C128.404 0.00800223 130.089 0.56817 132.036 1.6885C135.256 3.18228 137.053 4.75075 137.428 6.39392C137.877 7.96239 137.503 10.091 136.305 12.7798L109.12 74.3983C108.446 75.8174 107.36 76.9751 105.863 77.8714C104.44 78.6929 102.792 79.1037 100.92 79.1037Z" fill="#19213D"/>
<path d="M180.173 80C176.878 80 173.396 79.4772 169.726 78.4315C166.057 77.3859 162.462 75.8174 158.942 73.7261C155.422 71.6348 152.202 68.9834 149.282 65.7717C146.436 62.4854 144.152 58.6763 142.429 54.3443C140.782 49.9376 139.958 44.9335 139.958 39.3318C139.958 33.9542 140.782 29.1741 142.429 24.9915C144.152 20.7342 146.436 17.0371 149.282 13.9002C152.127 10.7632 155.31 8.18646 158.83 6.16985C162.35 4.07856 165.982 2.54743 169.726 1.57647C173.47 0.530826 177.028 0.00800223 180.398 0.00800223C184.217 0.00800223 187.549 0.456135 190.395 1.3524C193.241 2.24867 195.562 3.18229 197.36 4.15325C199.157 5.04952 200.28 5.68437 200.73 6.05782C202.078 6.8794 203.351 7.81301 204.549 8.85866C205.747 9.9043 206.384 11.2861 206.459 13.0039C206.459 13.9002 206.272 14.7964 205.897 15.6927C205.598 16.5143 205.111 17.4106 204.437 18.3815C203.239 20.0994 202.078 21.3691 200.954 22.1907C199.906 22.9375 198.82 23.311 197.697 23.311C196.798 23.311 195.937 23.0869 195.113 22.6388C194.364 22.1907 193.391 21.5931 192.193 20.8463C191.668 20.4728 190.919 20.0247 189.946 19.5019C188.972 18.9043 187.662 18.3815 186.014 17.9334C184.367 17.4106 182.27 17.1491 179.724 17.1491C177.103 17.1491 174.444 17.6346 171.748 18.6056C169.127 19.5018 166.693 20.8836 164.446 22.7508C162.2 24.6181 160.402 27.0081 159.054 29.921C157.707 32.7592 157.033 36.0828 157.033 39.892C157.033 43.8505 157.707 47.2488 159.054 50.087C160.477 52.9252 162.312 55.2779 164.559 57.1451C166.805 59.0124 169.239 60.4315 171.86 61.4024C174.556 62.2987 177.177 62.7468 179.724 62.7468C181.97 62.7468 183.88 62.5228 185.453 62.0746C187.1 61.6265 188.486 61.1037 189.609 60.5061C190.807 59.834 191.818 59.2364 192.642 58.7136C193.466 58.1908 194.289 57.7053 195.113 57.2572C196.012 56.809 196.91 56.585 197.809 56.585C198.858 56.585 199.906 56.9958 200.954 57.8173C202.078 58.6389 203.201 59.946 204.324 61.7385C204.998 62.7095 205.523 63.6804 205.897 64.6514C206.272 65.5477 206.421 66.4439 206.346 67.3402C206.346 68.9087 205.747 70.2157 204.549 71.2614C203.351 72.2323 202.078 73.1286 200.73 73.9502C200.131 74.2489 198.97 74.9211 197.247 75.9668C195.525 76.9377 193.241 77.834 190.395 78.6556C187.549 79.5519 184.142 80 180.173 80Z" fill="#19213D"/>
<path d="M222.25 79.1037C219.629 79.1037 217.719 78.6929 216.521 77.8714C215.398 77.0498 214.649 76.0041 214.275 74.7344C213.9 73.39 213.713 71.9709 213.713 70.4771V9.19476C213.713 7.77567 213.863 6.43126 214.162 5.16155C214.462 3.81714 215.211 2.73415 216.409 1.91258C217.607 1.09099 219.592 0.717546 222.363 0.792234H242.582C247.974 0.792234 252.992 1.76319 257.635 3.70511C262.278 5.64703 266.359 8.37318 269.879 11.8836C273.399 15.394 276.132 19.5018 278.079 24.2073C280.026 28.9127 281 34.0289 281 39.5559C281 45.1575 280.026 50.3858 278.079 55.2406C276.132 60.0207 273.399 64.2033 269.879 67.7883C266.359 71.2987 262.24 74.0622 257.523 76.0788C252.879 78.0954 247.787 79.1037 242.245 79.1037H222.25ZM230.787 61.9626H242.582C246.626 61.9626 250.258 61.029 253.479 59.1617C256.699 57.2198 259.245 54.6057 261.117 51.3194C262.989 48.0331 263.925 44.2613 263.925 40.004C263.925 35.7467 262.989 31.9376 261.117 28.5766C259.245 25.2156 256.699 22.6014 253.479 20.7342C250.258 18.7923 246.589 17.8213 242.47 17.8213H230.787V61.9626Z" fill="#19213D"/>
</svg>
