<?xml version="1.0" standalone="no"?>
<!DOCTYPE svg PUBLIC "-//W3C//DTD SVG 20010904//EN"
 "http://www.w3.org/TR/2001/REC-SVG-20010904/DTD/svg10.dtd">
<svg version="1.0" xmlns="http://www.w3.org/2000/svg"
 width="1024.000000pt" height="1536.000000pt" viewBox="0 0 1024.000000 1536.000000"
 preserveAspectRatio="xMidYMid meet">

<g transform="translate(0.000000,1536.000000) scale(0.100000,-0.100000)"
fill="#000000" stroke="none">
<path d="M5055 10529 c-32 -10 -53 -29 -707 -639 -239 -223 -466 -434 -505
-470 -209 -194 -1015 -945 -1128 -1051 -44 -41 -168 -156 -275 -255 -107 -98
-201 -186 -208 -194 -26 -30 -52 -96 -52 -135 0 -45 30 -118 63 -153 59 -64
182 -91 260 -58 18 7 96 73 175 145 l142 132 0 -1361 c0 -1502 -4 -1398 63
-1468 64 -67 -113 -62 2239 -62 2085 0 2140 0 2176 19 48 25 87 66 106 113 14
33 16 191 16 1400 1 1073 3 1360 13 1347 32 -41 260 -240 296 -258 75 -39 170
-24 241 36 54 46 79 102 80 172 0 84 -26 126 -149 238 -59 54 -170 157 -247
228 -431 401 -1195 1108 -1395 1290 -90 82 -202 186 -249 231 -330 314 -797
738 -825 750 -38 16 -85 17 -130 3z m278 -736 c117 -109 264 -245 327 -303 63
-58 155 -143 205 -190 138 -129 475 -441 731 -675 126 -115 264 -243 306 -284
l78 -74 0 -1439 0 -1438 -540 1 -539 0 -3 827 c-3 910 1 853 -65 913 -66 62
-32 60 -722 57 l-629 -3 -44 -30 c-23 -17 -54 -51 -68 -75 l-25 -45 -3 -820
-2 -820 -540 -2 -540 -3 0 1438 0 1437 368 342 c203 188 379 353 393 365 91
88 1094 1018 1097 1018 2 0 99 -89 215 -197z m127 -3715 l0 -678 -340 0 -340
0 0 678 0 677 340 0 340 0 0 -677z"/>
</g>
</svg>
