<svg width="55" height="79" viewBox="0 0 55 79" fill="none" xmlns="http://www.w3.org/2000/svg">
<path fill-rule="evenodd" clip-rule="evenodd" d="M27.3204 2.392C24.8748 4.57 24.6064 5.487 24.3187 12.642C24.1439 16.964 23.5279 21.491 22.9496 22.702C21.5989 25.526 17.455 27 10.8626 27C7.98643 27 4.83796 27.441 3.86668 27.979C0.128299 30.051 -1.27939 40.974 1.35157 47.497C2.87994 51.286 3.9246 51.705 13.229 52.264C17.9242 52.546 19.7847 53.146 21.6771 54.987C23.8446 57.095 24.1043 58.139 24.1043 64.724C24.1043 72.424 25.6559 77.251 28.4925 78.379C29.3518 78.72 34.5229 79 39.9837 79C48.566 79 50.2575 78.719 52.4559 76.927C54.8253 74.997 55 74.306 55 66.862C55 62.465 54.5742 58.045 54.0548 57.039C52.5708 54.167 47.7685 53 37.4329 53C28.5765 53 27.7056 52.821 25.5091 50.545C23.3686 48.329 23.1388 47.277 23.1388 39.68C23.1388 32.686 23.4758 30.826 25.1403 28.635C27.0693 26.094 27.4942 26 37.0641 26C47.7482 26 52.5583 24.856 54.0548 21.961C54.5742 20.955 55 16.535 55 12.138C55 4.694 54.8253 4.003 52.4559 2.073C50.2566 0.279998 48.566 0 39.9586 0C30.8531 0 29.7766 0.203998 27.3204 2.392Z" fill="#2388FF"/>
</svg>
