<svg width="58" height="82" viewBox="0 0 58 82" fill="none" xmlns="http://www.w3.org/2000/svg">
<path fill-rule="evenodd" clip-rule="evenodd" d="M28.6884 3.16349C26.1203 5.39663 25.8385 6.33685 25.5364 13.673C25.3529 18.1044 24.706 22.746 24.0987 23.9877C22.6804 26.8832 18.329 28.3945 11.4065 28.3945C8.38633 28.3945 5.08021 28.8467 4.06029 29.3983C0.134723 31.5227 -1.34345 42.7222 1.41925 49.4104C3.02415 53.2953 4.12111 53.7249 13.8914 54.2981C18.8217 54.5872 20.7754 55.2024 22.7625 57.09C25.0386 59.2514 25.3113 60.3218 25.3113 67.0735C25.3113 74.9685 26.9405 79.9177 29.9192 81.0742C30.8215 81.4238 36.2516 81.7109 41.9858 81.7109C50.9978 81.7109 52.7741 81.4228 55.0826 79.5855C57.5705 77.6066 57.754 76.8981 57.754 69.2656C57.754 64.7573 57.3069 60.2254 56.7615 59.194C55.2032 56.2493 50.1604 55.0527 39.3073 55.0527C30.0074 55.0527 29.0929 54.8692 26.7864 52.5356C24.5388 50.2635 24.2975 49.1848 24.2975 41.3955C24.2975 34.2244 24.6513 32.3173 26.3991 30.0709C28.4248 27.4655 28.8709 27.3692 38.92 27.3692C50.1391 27.3692 55.19 26.1962 56.7615 23.2279C57.3069 22.1964 57.754 17.6645 57.754 13.1562C57.754 5.52377 57.5705 4.81528 55.0826 2.83642C52.773 0.998024 50.9978 0.710938 41.9595 0.710938C32.398 0.710938 31.2676 0.9201 28.6884 3.16349Z" fill="black"/>
</svg>
