<svg width="15" height="16" viewBox="0 0 15 16" fill="none" xmlns="http://www.w3.org/2000/svg">
    <path d="M13.9068 8C13.9068 8.558 14.1008 9.098 14.4548 9.529L14.7738 9.916C15.0388 10.238 15.0758 10.69 14.8678 11.051L14.0608 12.449C13.8518 12.81 13.4418 13.004 13.0308 12.935L12.5358 12.853C11.9848 12.761 11.4208 12.864 10.9378 13.143C10.4548 13.423 10.0838 13.861 9.88781 14.383L9.71181 14.851C9.56581 15.241 9.19281 15.5 8.77581 15.5H7.16181C6.74481 15.5 6.37181 15.241 6.22581 14.851L6.04981 14.383C5.85381 13.861 5.48281 13.423 4.99981 13.143C4.51681 12.864 3.95281 12.761 3.40181 12.853L2.90681 12.935C2.49581 13.004 2.08581 12.81 1.87681 12.449L1.06981 11.051C0.861806 10.69 0.898806 10.238 1.16381 9.916L1.48281 9.529C1.83681 9.098 2.03081 8.558 2.03081 8C2.03081 7.442 1.83681 6.902 1.48281 6.471L1.16381 6.084C0.898806 5.762 0.861806 5.31 1.06981 4.949L1.87681 3.551C2.08581 3.19 2.49581 2.996 2.90681 3.065L3.40181 3.147C3.95281 3.239 4.51681 3.136 4.99981 2.857C5.48281 2.577 5.85381 2.139 6.04981 1.617L6.22581 1.149C6.37181 0.759 6.74481 0.5 7.16181 0.5H8.77581C9.19281 0.5 9.56581 0.759 9.71181 1.149L9.88781 1.617C10.0838 2.139 10.4548 2.577 10.9378 2.857C11.4208 3.136 11.9848 3.239 12.5358 3.147L13.0308 3.065C13.4418 2.996 13.8518 3.19 14.0608 3.551L14.8678 4.949C15.0758 5.31 15.0388 5.762 14.7738 6.084L14.4548 6.471C14.1008 6.902 13.9068 7.442 13.9068 8ZM4.96881 8C4.96881 9.657 6.31181 11 7.96881 11C9.62581 11 10.9688 9.657 10.9688 8C10.9688 6.343 9.62581 5 7.96881 5C6.31181 5 4.96881 6.343 4.96881 8Z" fill="#333333"/>
</svg>
